<svg width="96" height="96" xmlns="http://www.w3.org/2000/svg" xmlns:xlink="http://www.w3.org/1999/xlink" xml:space="preserve" overflow="hidden"><g transform="translate(-592 -312)"><g><path d="M640 394.135 640 325.865 614.638 347 595 347 595 373 614.638 373ZM597 349 615.362 349 638 330.135 638 389.865 615.362 371 597 371Z" fill="#0266D7" fill-rule="nonzero" fill-opacity="1"/><path d="M675 360C675.031 350.459 671.133 341.326 664.222 334.749L662.837 336.192C675.986 348.787 676.435 369.656 663.84 382.805 663.513 383.146 663.178 383.481 662.837 383.808L664.222 385.251C671.133 378.674 675.031 369.541 675 360Z" fill="#0266D7" fill-rule="nonzero" fill-opacity="1"/><path d="M655.066 376.023 656.437 377.48C666.091 368.412 666.566 353.235 657.498 343.581 657.155 343.216 656.802 342.862 656.437 342.52L655.066 343.977C663.915 352.287 664.353 366.197 656.043 375.046 655.728 375.382 655.402 375.708 655.066 376.023Z" fill="#0266D7" fill-rule="nonzero" fill-opacity="1"/><path d="M653 360C652.994 356.288 651.402 352.755 648.625 350.291L647.297 351.791C651.833 355.8 652.261 362.728 648.252 367.264 647.953 367.602 647.635 367.921 647.297 368.219L648.625 369.719C651.404 367.253 652.996 363.716 653 360Z" fill="#0266D7" fill-rule="nonzero" fill-opacity="1"/></g></g></svg>